<svg xmlns="http://www.w3.org/2000/svg" viewBox="0 0 42.63 38.52"><defs><style>.cls-1{fill:none;stroke:#344154;stroke-linecap:round;stroke-miterlimit:10;stroke-width:1.06px;}.cls-2{fill:#f2ddde;}</style></defs><g id="Layer_2" data-name="Layer 2"><g id="Icon_Set" data-name="Icon Set"><path class="cls-1" d="M14.82,32H27.35a2.24,2.24,0,0,1,2.24,2.24V38a0,0,0,0,1,0,0h-17a0,0,0,0,1,0,0V34.23A2.24,2.24,0,0,1,14.82,32Z"/><line class="cls-1" x1="21.59" y1="25.99" x2="21.59" y2="8.99"/><path class="cls-1" d="M23.36,7.39a2,2,0,1,0-2,2A2,2,0,0,0,23.36,7.39Z"/><path class="cls-1" d="M13.56,14a6.52,6.52,0,1,1-13,0Z"/><path class="cls-2" d="M7.05,18.14a4.6,4.6,0,0,1-4.16-2.65H11.2A4.6,4.6,0,0,1,7.05,18.14Z"/><path class="cls-1" d="M29.07,14a6.52,6.52,0,1,0,13,0Z"/><path class="cls-2" d="M35.58,18.14a4.6,4.6,0,0,1-4.15-2.65h8.31A4.6,4.6,0,0,1,35.58,18.14Z"/><path class="cls-1" d="M18.06,4.13a4.62,4.62,0,0,1,6.51,0"/><path class="cls-1" d="M6.59,12V4.62a27.76,27.76,0,0,1,29,0V12"/><path class="cls-1" d="M23.59,32V28.05a2.49,2.49,0,0,0-2.5-2.49h0a2.49,2.49,0,0,0-2.5,2.49V32"/></g></g></svg>