<svg xmlns="http://www.w3.org/2000/svg" viewBox="0 0 41.78 45.69"><defs><style>.cls-1{fill:none;stroke:#344154;stroke-linecap:round;stroke-linejoin:round;stroke-width:1.06px;}.cls-2{fill:#89abe3;}</style></defs><g id="Layer_2" data-name="Layer 2"><g id="Icon_Set" data-name="Icon Set"><path class="cls-1" d="M28.61.53H20.88a.63.63,0,0,0-.63.63V4.3a1.26,1.26,0,0,0,1.29,1.23h0a1.33,1.33,0,0,0,1.21-.8,2.19,2.19,0,0,1,4,0,1.33,1.33,0,0,0,1.2.8h0a1.26,1.26,0,0,0,1.3-1.23V1.16A.64.64,0,0,0,28.61.53Z"/><path class="cls-1" d="M38.25,3.53h3V30.87a6.66,6.66,0,0,1-6.66,6.66H22.25"/><path class="cls-1" d="M23.25,34.53H32.4a1.85,1.85,0,0,0,1.85-1.85V30.53H36.4a1.85,1.85,0,0,0,1.85-1.85V.53h-7"/><polyline class="cls-1" points="17.25 0.53 10.25 0.53 10.25 22.53"/><polyline class="cls-1" points="14.25 18.53 14.25 13.24 12.79 14.31"/><line class="cls-1" x1="14.25" y1="18.53" x2="15.25" y2="18.53"/><path class="cls-1" d="M18.75,18.29h0a1.5,1.5,0,0,1-1.5-1.5V14.41a1.5,1.5,0,0,1,1.5-1.5h0a1.5,1.5,0,0,1,1.5,1.5v2.38A1.5,1.5,0,0,1,18.75,18.29Z"/><path class="cls-1" d="M28,14.29A1.32,1.32,0,0,1,29.37,13a1.35,1.35,0,0,1,1.29,1.29A1.33,1.33,0,0,1,30,15.41a4.87,4.87,0,0,0-1.59,1.78l-.19.34h3"/><path class="cls-1" d="M34,18.08h0a2.08,2.08,0,0,1-1.71-1.35V14.59A2.08,2.08,0,0,1,34,13.24h0a1.26,1.26,0,0,1,1.29,1.35v2.14A1.26,1.26,0,0,1,34,18.08Z"/><line class="cls-1" x1="22.25" y1="15.53" x2="26.25" y2="15.53"/><line class="cls-1" x1="24.25" y1="13.53" x2="24.25" y2="17.53"/><path class="cls-1" d="M11.23,34.28a1.74,1.74,0,1,0,3.47,0c0-1-.71-1.4-1.73-1.73s-1.74-.78-1.74-1.73a1.74,1.74,0,1,1,3.47,0"/><line class="cls-1" x1="13.25" y1="28.53" x2="13.25" y2="29.53"/><line class="cls-1" x1="13.25" y1="35.53" x2="13.25" y2="36.53"/><path class="cls-1" d="M8,39.9,3.23,44.7A1.58,1.58,0,0,1,1,44.7H1a1.57,1.57,0,0,1,0-2.23l4.8-4.8A8.47,8.47,0,1,1,8,39.9Z"/><line class="cls-1" x1="5.79" y1="37.67" x2="6.76" y2="38.64"/><path class="cls-2" d="M32.75,30.84h0A1.81,1.81,0,0,1,34.55,29h2.2V25.17A6.08,6.08,0,0,0,28.88,33h3.87Z"/></g></g></svg>