<svg xmlns="http://www.w3.org/2000/svg" viewBox="0 0 36.7 41.68"><defs><style>.cls-1,.cls-2{fill:none;stroke:#344154;stroke-linecap:round;stroke-width:1.06px;}.cls-1{stroke-miterlimit:10;}.cls-2{stroke-linejoin:round;}.cls-3{fill:#89abe3;}</style></defs><g id="Layer_2" data-name="Layer 2"><g id="Icon_Set" data-name="Icon Set"><circle class="cls-1" cx="27.86" cy="32.84" r="8.31" transform="translate(-9.02 55.08) rotate(-80.78)"/><polyline class="cls-2" points="23.75 32.09 27.2 35.54 32.6 30.14"/><path class="cls-2" d="M17.78,15.57A1.21,1.21,0,0,1,19,14.36a1.21,1.21,0,0,1,.69,2.18,5.58,5.58,0,0,0-1.53,1.68l-.18.31h2.53"/><path class="cls-2" d="M23.22,19h0c-.68,0-1.24-.55-.69-1.23v-2c-.55-.68,0-1.23.69-1.23h0a1.36,1.36,0,0,1,1.31,1.23v2A1.36,1.36,0,0,1,23.22,19Z"/><path class="cls-2" d="M4.41,15.57a1.21,1.21,0,0,1,1.24-1.21,1.23,1.23,0,0,1,1.18,1.17,1.21,1.21,0,0,1-.49,1,5.46,5.46,0,0,0-1.53,1.68l-.18.31h2.9"/><path class="cls-2" d="M9.84,19h0a1.36,1.36,0,0,1-1.31-1.23v-2a1.36,1.36,0,0,1,1.31-1.23h0c.68,0,1.23.55.69,1.23v2C11.07,18.43,10.52,19,9.84,19Z"/><polyline class="cls-2" points="27.53 24.53 27.53 0.53 20.53 0.53"/><polyline class="cls-2" points="20.53 0.53 0.53 0.53 0.53 33.53 19.53 33.53"/><path class="cls-2" d="M17.53,2.53v.11a.89.89,0,0,1-.89.89H11.42a.89.89,0,0,1-.89-.89V2.53"/><line class="cls-2" x1="14.53" y1="8.53" x2="14.53" y2="29.53"/><polygon class="cls-3" points="8.32 31.03 3.03 25.73 3.03 31.03 8.32 31.03"/></g></g></svg>