<svg xmlns="http://www.w3.org/2000/svg" viewBox="0 0 47.06 41.64"><defs><style>.cls-1{fill:none;stroke:#344154;stroke-linecap:round;stroke-linejoin:round;stroke-width:1.06px;}.cls-2{fill:#f2ddde;}</style></defs><g id="Layer_2" data-name="Layer 2"><g id="Icon_Set" data-name="Icon Set"><path class="cls-1" d="M21.3,18A2.33,2.33,0,0,0,26,18c0-1.29-.95-1.88-2.33-2.33-1.22-.4-2.33-1-2.33-2.33a2.33,2.33,0,0,1,4.66,0"/><line class="cls-1" x1="23.53" y1="10.11" x2="23.53" y2="11.11"/><line class="cls-1" x1="23.53" y1="20.11" x2="23.53" y2="22.11"/><circle class="cls-1" cx="23.63" cy="15.69" r="8.85"/><polyline class="cls-1" points="32.53 16.11 46.53 16.11 46.53 13.37 23.53 0.53 0.53 13.37 0.53 16.11 14.53 16.11"/><path class="cls-1" d="M10.53,36.11v-2a1.21,1.21,0,1,0-2.41,0H5.93a1.23,1.23,0,0,0-1.2-1.26,1.23,1.23,0,0,0-1.2,1.26v2"/><path class="cls-1" d="M43.53,36.11v-2a1.2,1.2,0,1,0-2.4,0h-2.2a1.2,1.2,0,1,0-2.4,0v2"/><line class="cls-1" x1="5.53" y1="16.11" x2="5.53" y2="33.11"/><line class="cls-1" x1="9.53" y1="16.11" x2="9.53" y2="33.11"/><line class="cls-1" x1="37.53" y1="16.11" x2="37.53" y2="33.11"/><line class="cls-1" x1="42.53" y1="16.11" x2="42.53" y2="33.11"/><path class="cls-1" d="M3.71,36.11H43.34a3.18,3.18,0,0,1,3.18,3.18v1.82a0,0,0,0,1,0,0H.53a0,0,0,0,1,0,0V39.29A3.18,3.18,0,0,1,3.71,36.11Z"/><path class="cls-2" d="M1.47,39.61a1.32,1.32,0,0,1,1.27-1H44.53a1.3,1.3,0,0,1,1.26,1Z"/></g></g></svg>