<svg xmlns="http://www.w3.org/2000/svg" viewBox="0 0 40.55 38.75"><defs><style>.cls-1,.cls-2{fill:none;stroke:#344154;stroke-linecap:round;stroke-width:1.06px;}.cls-1{stroke-linejoin:round;}.cls-2{stroke-miterlimit:10;}.cls-3{fill:#f2ddde;}</style></defs><g id="Layer_2" data-name="Layer 2"><g id="Icon_Set" data-name="Icon Set"><path class="cls-1" d="M4.93,17.1a1.76,1.76,0,0,0,3.52,0c0-1-.72-1.42-1.76-1.76s-1.76-.78-1.76-1.76a1.76,1.76,0,0,1,3.52,0"/><line class="cls-1" x1="6.52" y1="10.22" x2="6.52" y2="12.22"/><line class="cls-1" x1="6.52" y1="19.22" x2="6.52" y2="20.22"/><path class="cls-1" d="M32.1,17.1a1.76,1.76,0,1,0,3.51,0c0-1-.72-1.42-1.76-1.76s-1.75-.78-1.75-1.76a1.76,1.76,0,0,1,3.51,0"/><line class="cls-1" x1="33.52" y1="10.22" x2="33.52" y2="12.22"/><line class="cls-1" x1="33.52" y1="19.22" x2="33.52" y2="20.22"/><line class="cls-2" x1="20.52" y1="25.22" x2="20.52" y2="10.22"/><path class="cls-2" d="M22.12,8.44a1.93,1.93,0,1,0-1.93,1.93A1.93,1.93,0,0,0,22.12,8.44Z"/><path class="cls-2" d="M12.86,16.39a6.17,6.17,0,1,1-12.33,0"/><line class="cls-2" x1="10.32" y1="11.03" x2="6.74" y2="5.91"/><path class="cls-2" d="M27.69,16.39a6.17,6.17,0,1,0,12.33,0"/><line class="cls-2" x1="33.63" y1="5.91" x2="30.06" y2="11.03"/><path class="cls-2" d="M17.11,5.36a4.36,4.36,0,0,1,6.15,0"/><path class="cls-2" d="M22.52,33.22V27.91a2.5,2.5,0,0,0-2.5-2.5h0a2.5,2.5,0,0,0-2.5,2.5v5.31"/><path class="cls-2" d="M2.88,11a19.52,19.52,0,0,1,34.61,0"/><path class="cls-2" d="M13.75,32.22H26.28a2.24,2.24,0,0,1,2.24,2.24v3.76a0,0,0,0,1,0,0h-17a0,0,0,0,1,0,0V34.46A2.24,2.24,0,0,1,13.75,32.22Z"/><path class="cls-3" d="M19.87,29.22h1.64a0,0,0,0,1,0,0v13a0,0,0,0,1,0,0H19.87a.36.36,0,0,1-.36-.36V29.58A.36.36,0,0,1,19.87,29.22Z" transform="translate(56.24 15.21) rotate(90)"/></g></g></svg>