<svg xmlns="http://www.w3.org/2000/svg" viewBox="0 0 39.06 35.06"><defs><style>.cls-1{fill:none;stroke:#344154;stroke-linecap:round;stroke-linejoin:round;stroke-width:1.06px;}.cls-2{fill:#f2ddde;}</style></defs><g id="Layer_2" data-name="Layer 2"><g id="Icon_Set" data-name="Icon Set"><path class="cls-1" d="M38.53,11.53V32.69a1.84,1.84,0,0,1-1.84,1.84H2.37A1.84,1.84,0,0,1,.53,32.69V11.53"/><path class="cls-1" d="M6.6,3.7a2.27,2.27,0,0,0-.18.91,2.37,2.37,0,0,0,4.73,0A2.28,2.28,0,0,0,11,3.7"/><path class="cls-1" d="M28.06,3.7a2.27,2.27,0,0,0-.18.91,2.37,2.37,0,0,0,4.73,0,2.28,2.28,0,0,0-.19-.91"/><line class="cls-1" x1="8.53" y1="4.53" x2="8.53" y2="0.53"/><line class="cls-1" x1="30.53" y1="4.53" x2="30.53" y2="0.53"/><line class="cls-1" x1="28.53" y1="1.53" x2="10.53" y2="1.53"/><path class="cls-1" d="M6.53,1.53H2.37A1.84,1.84,0,0,0,.53,3.37V9.53h38V3.36a1.83,1.83,0,0,0-1.84-1.83H32.53"/><line class="cls-1" x1="11.53" y1="16.53" x2="11.53" y2="19.53"/><line class="cls-1" x1="16.53" y1="16.53" x2="16.53" y2="19.53"/><line class="cls-1" x1="22.53" y1="16.53" x2="22.53" y2="19.53"/><line class="cls-1" x1="27.53" y1="16.53" x2="27.53" y2="19.53"/><line class="cls-1" x1="11.53" y1="25.53" x2="11.53" y2="29.53"/><line class="cls-1" x1="16.53" y1="25.53" x2="16.53" y2="29.53"/><line class="cls-1" x1="22.53" y1="25.53" x2="22.53" y2="29.53"/><line class="cls-1" x1="27.53" y1="25.53" x2="27.53" y2="29.53"/><line class="cls-1" x1="8.53" y1="22.53" x2="30.53" y2="22.53"/><polygon class="cls-2" points="36.03 28.07 31.07 33.03 36.03 33.03 36.03 28.07"/></g></g></svg>