<svg xmlns="http://www.w3.org/2000/svg" viewBox="0 0 30.94 41.03"><defs><style>.cls-1{fill:none;stroke:#344154;stroke-linecap:round;stroke-linejoin:round;stroke-width:1.06px;}.cls-2{fill:#89abe3;}</style></defs><g id="Layer_2" data-name="Layer 2"><g id="Icon_Set" data-name="Icon Set"><path class="cls-1" d="M4.1,7.85,4,9.5,2.68,10a1.26,1.26,0,0,0-.56.4c-3.61,4.41-.52,9.4,3.72,9.4H23.41a7,7,0,0,0,3.55-1c4.16-2.44,5.24-8.92-.58-12.77a1.68,1.68,0,0,0-.93-.27H23.28l-.06-.12c-1.91-5.18-9-7.5-14-1.95a1.94,1.94,0,0,0-.42.77L8.22,6.4l-.17-.05a4.62,4.62,0,0,0-3.63.89A.78.78,0,0,0,4.1,7.85Z"/><path class="cls-1" d="M22.28,21.35a6.69,6.69,0,0,1-6.82,6.56,6.69,6.69,0,0,1-6.82-6.56"/><line class="cls-1" x1="15.11" y1="31.8" x2="15.11" y2="37.8"/><line class="cls-1" x1="11.11" y1="30.8" x2="11.11" y2="34.8"/><line class="cls-1" x1="20.11" y1="30.8" x2="20.11" y2="34.8"/><path class="cls-1" d="M15.46,40.5A1.54,1.54,0,1,0,13.92,39,1.53,1.53,0,0,0,15.46,40.5Z"/><path class="cls-1" d="M10.88,37.72a1.54,1.54,0,1,0-1.54-1.53A1.53,1.53,0,0,0,10.88,37.72Z"/><path class="cls-1" d="M20,37.65a1.54,1.54,0,1,0,0-3.07,1.54,1.54,0,0,0,0,3.07Z"/><path class="cls-1" d="M20,30.93a10.52,10.52,0,0,0,6.4-9.58h0"/><path class="cls-1" d="M10.88,30.91a11.22,11.22,0,0,0,4.58,1"/><path class="cls-1" d="M4.51,21.35h0a10.37,10.37,0,0,0,4.13,8.24"/><path class="cls-2" d="M25,6.89a8.69,8.69,0,0,1,.8,3A8.1,8.1,0,0,1,23,16.29a10.28,10.28,0,0,1-1.37,1h2A5.3,5.3,0,0,0,25,6.89Z"/></g></g></svg>