<svg xmlns="http://www.w3.org/2000/svg" viewBox="0 0 39.56 44.17"><defs><style>.cls-1{fill:none;stroke:#344154;stroke-linecap:round;stroke-linejoin:round;stroke-width:1.06px;}.cls-2{fill:#f2ddde;}</style></defs><g id="Layer_2" data-name="Layer 2"><g id="Icon_Set" data-name="Icon Set"><path class="cls-1" d="M29.74,43.64H9.82A1.82,1.82,0,0,1,8,42L4.37,10A1.18,1.18,0,0,1,5.55,8.65H34A1.19,1.19,0,0,1,35.2,10L31.54,42A1.81,1.81,0,0,1,29.74,43.64Z"/><line class="cls-1" x1="19.78" y1="30.62" x2="19.78" y2="15.15"/><line class="cls-1" x1="25.07" y1="30.62" x2="26.11" y2="15.15"/><line class="cls-1" x1="14.49" y1="30.62" x2="13.45" y2="15.15"/><path class="cls-1" d="M39,9.91h0A4.84,4.84,0,0,0,34.2,5.07H5.36A4.84,4.84,0,0,0,.53,9.91h0"/><path class="cls-1" d="M26.9,5.07A4.54,4.54,0,0,0,22.36.53H17.2a4.54,4.54,0,0,0-4.54,4.54"/><path class="cls-2" d="M19.78,36.37A20.27,20.27,0,0,1,9.09,33.29l.95,8.3H29.53l.95-8.3A20.34,20.34,0,0,1,19.78,36.37Z"/></g></g></svg>