<svg xmlns="http://www.w3.org/2000/svg" viewBox="0 0 34.99 41.29"><defs><style>.cls-1{fill:none;stroke:#344154;stroke-linecap:round;stroke-linejoin:round;stroke-width:1.06px;}.cls-2{fill:#89abe3;}</style></defs><g id="Layer_2" data-name="Layer 2"><g id="Icon_Set" data-name="Icon Set"><line class="cls-1" x1="23.16" y1="17.38" x2="8.62" y2="17.38"/><line class="cls-1" x1="23.16" y1="13.3" x2="8.62" y2="13.3"/><path class="cls-1" d="M20.28.53H11.5a.69.69,0,0,0-.69.69V5a1.46,1.46,0,0,0,1.46,1.45h0a1.5,1.5,0,0,0,1.37-.94,2.42,2.42,0,0,1,4.46,0,1.5,1.5,0,0,0,1.37.94h0A1.46,1.46,0,0,0,21,5V1.22A.69.69,0,0,0,20.28.53Z"/><path class="cls-1" d="M31.25,3.61h3.21V33.5a7.26,7.26,0,0,1-7.26,7.26h-24V37.55"/><path class="cls-1" d="M8.47.53H.53v37H24.7a2,2,0,0,0,2-2V33h2.53a2,2,0,0,0,2-2V.53H23.31"/><polyline class="cls-1" points="23.16 21.5 23.16 24.24 8.62 24.24 8.62 21.5"/><polygon class="cls-2" points="9.84 35.5 2.58 28.24 2.58 35.5 9.84 35.5"/></g></g></svg>