<svg xmlns="http://www.w3.org/2000/svg" viewBox="0 0 39.01 38.25"><defs><style>.cls-1,.cls-2{fill:none;stroke:#344154;stroke-linecap:round;stroke-width:1.06px;}.cls-1{stroke-miterlimit:10;}.cls-2{stroke-linejoin:round;}.cls-3{fill:#89abe3;}</style></defs><g id="Layer_2" data-name="Layer 2"><g id="Icon_Set" data-name="Icon Set"><path class="cls-1" d="M28.74,28.75l3.63-3.44a4.07,4.07,0,0,1,5.76.11h0a1.25,1.25,0,0,1,0,1.76l-7.31,7A12,12,0,0,1,23.4,37c-2.57.1-5.13-.31-7.71-.46a53.19,53.19,0,0,0-14,1.21"/><path class="cls-1" d="M.53,27.21A12.67,12.67,0,0,1,12.28,24a30.4,30.4,0,0,1,4.6,1.74,15,15,0,0,0,5.87,1.18h2.57a2.5,2.5,0,0,1,2.5,2.5h0a2.5,2.5,0,0,1-2.5,2.5H22.46A21.42,21.42,0,0,1,18,31.45l-5.15-1.1"/><path class="cls-2" d="M20.35,7.69a3.26,3.26,0,1,1,5.16,2.64,4.43,4.43,0,0,0-1.9,3.59h0"/><circle class="cls-2" cx="23.61" cy="15.57" r="0.23"/><circle class="cls-2" cx="23.61" cy="11.24" r="10.71"/><path class="cls-3" d="M25.56,18.16a8.87,8.87,0,0,1-7.17-14.1,8.87,8.87,0,1,0,12.39,12.4A8.81,8.81,0,0,1,25.56,18.16Z"/></g></g></svg>