<svg xmlns="http://www.w3.org/2000/svg" viewBox="0 0 37.7 37.54">
<defs><style>.cls-1{fill:none;stroke:#344154;stroke-linecap:round;stroke-linejoin:round;stroke-width:1.06px;}.cls-2{fill:#89abe3;}</style></defs><g id="Layer_2" data-name="Layer 2"><g id="Icon_Set" data-name="Icon Set"><polygon class="cls-1" points="11.15 25.56 11.15 37.01 3.62 37.01 3.62 15.4 18.85 5.16 34.08 15.4 34.08 37.01 26.54 37.01 26.54 25.56 11.15 25.56"/><polyline class="cls-1" points="0.53 13.76 18.85 1.44 24.98 5.56 24.98 5.57 24.98 0.53 29.92 0.53 29.92 8.88 29.91 8.88 37.17 13.76"/><line class="cls-1" x1="22.61" y1="17.5" x2="20.34" y2="15.23"/><line class="cls-1" x1="21.11" y1="20.03" x2="16.31" y2="15.23"/><line class="cls-1" x1="17.08" y1="20.03" x2="15.09" y2="18.04"/><path class="cls-2" d="M24.69,34.37V27.42H13v6.95a8.41,8.41,0,0,1,11.68,0Z"/></g></g>
</svg>