<svg xmlns="http://www.w3.org/2000/svg" viewBox="0 0 41.32 46.33"><defs><style>.cls-1{fill:none;stroke:#344154;stroke-linecap:round;stroke-linejoin:round;stroke-width:1.06px;}.cls-2{fill:#89abe3;}</style></defs><g id="Layer_2" data-name="Layer 2"><g id="Icon_Set" data-name="Icon Set"><path class="cls-1" d="M25.15,29.75l0-9a1,1,0,0,1,.53-.85,1,1,0,0,1,.42-.09.91.91,0,0,1,.57.19,3,3,0,0,0,1.86.63,1.83,1.83,0,0,0,1.83-1.83V17.42a1.83,1.83,0,0,0-1.83-1.83,3.06,3.06,0,0,0-1.86.64,1,1,0,0,1-1,.09.92.92,0,0,1-.53-.84l0-9a.65.65,0,0,0-.47-.61.66.66,0,0,0-.27-.06l-9,0a1,1,0,0,1-.85-.53.94.94,0,0,1,.1-1,3.09,3.09,0,0,0,.63-1.86A1.83,1.83,0,0,0,13.41.53H12a1.83,1.83,0,0,0-1.84,1.83,3.08,3.08,0,0,0,.64,1.86,1,1,0,0,1,.09,1,.94.94,0,0,1-.84.53l-8.9,0a.62.62,0,0,0-.62.62v9.11a.43.43,0,0,0,.24.33.48.48,0,0,0,.48-.05A3.56,3.56,0,0,1,3.42,15a2.32,2.32,0,0,1,2.32,2.32v1.42A2.32,2.32,0,0,1,3.42,21.1a3.51,3.51,0,0,1-2.16-.74.46.46,0,0,0-.48,0,.42.42,0,0,0-.24.32v9.11Z"/><path class="cls-1" d="M31.88,16h3.06a.63.63,0,0,1,.62.63l0,8.89a.94.94,0,0,0,.53.85,1,1,0,0,0,1-.1A3,3,0,0,1,39,25.59a1.83,1.83,0,0,1,1.83,1.83v1.42A1.84,1.84,0,0,1,39,30.67,3.06,3.06,0,0,1,37.1,30a.93.93,0,0,0-1-.09.91.91,0,0,0-.53.84l0,9a.78.78,0,0,1-.67.74l-9,0a1,1,0,0,0-.85.53,1,1,0,0,0,.1,1A3.09,3.09,0,0,1,25.72,44a1.83,1.83,0,0,1-1.83,1.83H22.47A1.84,1.84,0,0,1,20.64,44a3.1,3.1,0,0,1,.64-1.86,1,1,0,0,0,.19-.57.87.87,0,0,0-.1-.42.93.93,0,0,0-.84-.53l-9,0V31.83"/><polygon class="cls-2" points="23.14 22.54 12.97 27.73 23.13 27.73 23.14 22.54"/></g></g></svg>