<svg xmlns="http://www.w3.org/2000/svg" viewBox="0 0 40.06 41.78"><defs><style>.cls-1{fill:none;stroke:#344154;stroke-linecap:round;stroke-miterlimit:10;stroke-width:1.06px;}.cls-2{fill:#89abe3;}</style></defs><g id="Layer_2" data-name="Layer 2"><g id="Icon_Set" data-name="Icon Set"><path class="cls-1" d="M34.36,22.53l5.17,5V5.85A5.32,5.32,0,0,0,34.21.53H15.85a5.32,5.32,0,0,0-5.32,5.32V17.21a5.32,5.32,0,0,0,5.32,5.32Z"/><path class="cls-1" d="M29.53,25.53v4.68a5.32,5.32,0,0,1-5.32,5.32H5.7l-5.17,5V18.85a5.32,5.32,0,0,1,5.32-5.32H7.53"/><line class="cls-1" x1="19.53" y1="8.53" x2="29.53" y2="8.53"/><line class="cls-1" x1="19.53" y1="13.53" x2="29.53" y2="13.53"/><path class="cls-2" d="M15.32,21h4.62L12,13.12v4.61A3.29,3.29,0,0,0,15.32,21Z"/></g></g></svg>