<svg xmlns="http://www.w3.org/2000/svg" viewBox="0 0 39.52 38.92"><defs><style>.cls-1{fill:none;stroke:#344154;stroke-linecap:round;stroke-linejoin:round;stroke-width:1.06px;}.cls-2{fill:#f2ddde;}</style></defs><g id="Layer_2" data-name="Layer 2"><g id="Icon_Set" data-name="Icon Set"><path class="cls-1" d="M4.36,33.39V26.66a9.27,9.27,0,0,1,9.27-9.27H25.08a9.28,9.28,0,0,1,9.28,9.27v6.73"/><path class="cls-1" d="M14.36,17.39V14.9a1.52,1.52,0,0,1,1.51-1.51h8a1.52,1.52,0,0,1,1.52,1.51v2.49"/><line class="cls-1" x1="19.36" y1="13.39" x2="19.36" y2="9.39"/><path class="cls-1" d="M17.2,9.85a2.56,2.56,0,0,1,5.12,0"/><path class="cls-1" d="M14.36,33.39H34.43c4.07,0,4.56,5,4.56,5H.53s.49-5,4.56-5H9.36"/><path class="cls-1" d="M22.09.53a9.43,9.43,0,0,1,4.7,2.56,9.59,9.59,0,0,1,2.56,4.7"/><path class="cls-1" d="M22.24,4.68a3.84,3.84,0,0,1,1.91,1A3.9,3.9,0,0,1,25.2,7.63"/><path class="cls-1" d="M17.15.53A9.46,9.46,0,0,0,9.89,7.79"/><path class="cls-1" d="M17,4.68a3.84,3.84,0,0,0-2.95,3"/><path class="cls-2" d="M25.4,18.89H14.12A7.28,7.28,0,0,0,6.94,25a32.24,32.24,0,0,1,12.82-2.54A32.24,32.24,0,0,1,32.58,25,7.28,7.28,0,0,0,25.4,18.89Z"/></g></g></svg>