<svg xmlns="http://www.w3.org/2000/svg" viewBox="0 0 39.05 41.93"><defs><style>.cls-1{fill:none;stroke:#344154;stroke-linecap:round;stroke-linejoin:round;stroke-width:1.06px;}.cls-2{fill:#89abe3;}.cls-3{fill:#f2ddde;}</style></defs><g id="Layer_2" data-name="Layer 2"><g id="Icon_Set" data-name="Icon Set"><path class="cls-1" d="M24.32,18.4H37.57a1,1,0,0,1,1,1V32.44a1,1,0,0,1-1,1H24.32"/><rect class="cls-1" x="31.64" y="21" width="4.09" height="3.04" rx="1"/><line class="cls-1" x1="27.6" y1="30.13" x2="30.25" y2="30.13"/><line class="cls-1" x1="32.44" y1="30.13" x2="35.09" y2="30.13"/><path class="cls-1" d="M19.82,9.13h2.39a2.11,2.11,0,0,1,2.11,2.1V39.29a2.11,2.11,0,0,1-2.11,2.11H2.63a2.1,2.1,0,0,1-2.1-2.11V11.23a2.1,2.1,0,0,1,2.1-2.1H5"/><rect class="cls-1" x="5.02" y="15.22" width="14.8" height="5.37"/><rect class="cls-2" x="5.02" y="27.05" width="3.44" height="3.44"/><rect class="cls-3" x="10.7" y="27.05" width="3.44" height="3.44"/><rect class="cls-2" x="16.38" y="27.05" width="3.44" height="3.44"/><rect class="cls-3" x="5.02" y="33.2" width="3.44" height="3.44"/><rect class="cls-2" x="10.7" y="33.2" width="3.44" height="3.44"/><rect class="cls-3" x="16.38" y="33.2" width="3.44" height="3.44"/><path class="cls-1" d="M5,11V2A1.49,1.49,0,0,1,6.51.53H18.34A1.48,1.48,0,0,1,19.82,2v9"/><line class="cls-1" x1="9.33" y1="4.62" x2="15.51" y2="4.62"/><line class="cls-1" x1="9.33" y1="8.79" x2="15.51" y2="8.79"/></g></g></svg>