<svg xmlns="http://www.w3.org/2000/svg" viewBox="0 0 35.36 38.7"><defs><style>.cls-1{fill:none;stroke:#344154;stroke-linecap:round;stroke-linejoin:round;stroke-width:1.06px;}.cls-2{fill:#f2ddde;}</style></defs><g id="Layer_2" data-name="Layer 2"><g id="Icon_Set" data-name="Icon Set"><path class="cls-1" d="M25.21,32.87a1.83,1.83,0,0,0,3.65,0c0-1-.75-1.48-1.83-1.83s-1.82-.82-1.82-1.83a1.83,1.83,0,0,1,3.65,0"/><line class="cls-1" x1="27.53" y1="26.77" x2="27.53" y2="27.77"/><line class="cls-1" x1="27.53" y1="34.77" x2="27.53" y2="35.77"/><path class="cls-1" d="M34.15,31.05A7.12,7.12,0,1,0,27,38.17,7.11,7.11,0,0,0,34.15,31.05Z"/><path class="cls-1" d="M12.91,11.54l2.44,2A3.2,3.2,0,0,1,16.53,16v5.24a2.89,2.89,0,0,1-2.89,2.89h0"/><path class="cls-1" d="M4.14,11.54l-2.43,2A3.2,3.2,0,0,0,.53,16v5.24a2.89,2.89,0,0,0,2.89,2.89h0"/><path class="cls-1" d="M12.53,16.82l1,1.72V35.65c-.25,1.39-1.38,2.52-2.77,2.12H9.53"/><path class="cls-1" d="M2.53,16.82l1,1.72V35.66A2.5,2.5,0,0,0,6,38.16H6a2.5,2.5,0,0,0,2.5-2.5V25.77"/><path class="cls-1" d="M13.3,5.63A5.07,5.07,0,1,1,8.24.57,5.06,5.06,0,0,1,13.3,5.63Z"/><path class="cls-2" d="M8.24,2.43a3.24,3.24,0,0,0-1.13.21,3.2,3.2,0,0,1,0,6,3.24,3.24,0,0,0,1.13.2,3.2,3.2,0,0,0,0-6.4Z"/><path class="cls-1" d="M34,10.92A6.94,6.94,0,1,0,27,17.86,6.93,6.93,0,0,0,34,10.92Z"/><path class="cls-1" d="M25.53,2.77V2A1.5,1.5,0,0,1,27,.53h0A1.5,1.5,0,0,1,28.53,2v.74"/><line class="cls-1" x1="32.07" y1="5.88" x2="34.07" y2="3.88"/><line class="cls-1" x1="33.31" y1="3.12" x2="34.83" y2="4.64"/><line class="cls-1" x1="22.13" y1="6.02" x2="20.09" y2="3.98"/><line class="cls-1" x1="20.85" y1="3.21" x2="19.33" y2="4.74"/><path class="cls-1" d="M30.69,7.37a.1.1,0,0,0-.1-.11.11.11,0,0,0-.11.11.1.1,0,0,0,.11.1A.09.09,0,0,0,30.69,7.37Z"/><path class="cls-1" d="M32.29,10.92a.11.11,0,1,0-.11.11A.11.11,0,0,0,32.29,10.92Z"/><path class="cls-1" d="M30.69,14.47a.1.1,0,0,0-.1-.11.11.11,0,0,0,0,.22A.1.1,0,0,0,30.69,14.47Z"/><path class="cls-1" d="M23.37,7.37a.11.11,0,1,1,.22,0,.11.11,0,0,1-.22,0Z"/><path class="cls-1" d="M21.78,10.92a.11.11,0,0,1,.11-.11.11.11,0,0,1,0,.22A.11.11,0,0,1,21.78,10.92Z"/><path class="cls-1" d="M23.37,14.47a.11.11,0,1,1,.11.11A.11.11,0,0,1,23.37,14.47Z"/><path class="cls-1" d="M27.14,16.07a.11.11,0,0,0-.22,0,.11.11,0,0,0,.22,0Z"/><path class="cls-1" d="M27.14,5.77a.11.11,0,1,0-.11.11A.11.11,0,0,0,27.14,5.77Z"/><line class="cls-1" x1="27.53" y1="10.77" x2="27.53" y2="7.77"/></g></g></svg>