<svg xmlns="http://www.w3.org/2000/svg" viewBox="0 0 45.24 31.75"><defs><style>.cls-1{fill:none;stroke:#344154;stroke-linecap:round;stroke-linejoin:round;stroke-width:1.06px;}.cls-2{fill:#f2ddde;}</style></defs><g id="Layer_2" data-name="Layer 2"><g id="Icon_Set" data-name="Icon Set"><polyline class="cls-1" points="35.53 16.23 35.53 31.23 0.53 31.23 0.53 9.22 29.53 9.22"/><line class="cls-1" x1="24.53" y1="27.22" x2="6.53" y2="27.22"/><line class="cls-1" x1="20.53" y1="17.22" x2="14.53" y2="17.22"/><line class="cls-1" x1="24.53" y1="13.22" x2="14.53" y2="13.22"/><path class="cls-1" d="M6,19a1.75,1.75,0,0,0,3.5,0c0-1-.71-1.42-1.75-1.76S6,16.49,6,15.52a1.75,1.75,0,0,1,3.5,0"/><line class="cls-1" x1="7.53" y1="13.22" x2="7.53" y2="14.22"/><line class="cls-1" x1="7.53" y1="21.22" x2="7.53" y2="22.22"/><path class="cls-1" d="M31.94-2.06h4.5a0,0,0,0,1,0,0V23.35a.82.82,0,0,1-.82.82H32.76a.82.82,0,0,1-.82-.82V-2.06a0,0,0,0,1,0,0Z" transform="translate(50.55 43.04) rotate(-135)"/><polyline class="cls-1" points="26.51 21.91 25.36 23.06 22.43 24.26 21.7 23.54 20.98 22.82 22.18 19.88 23.33 18.73"/><line class="cls-1" x1="21.7" y1="23.54" x2="20.19" y2="25.06"/><path class="cls-1" d="M42.45,6l.75.75a1.86,1.86,0,0,1,0,2.64L37.58,15"/><line class="cls-1" x1="39.68" y1="8.74" x2="36.5" y2="5.56"/><polygon class="cls-2" points="33.03 23.06 26.37 29.73 33.03 29.73 33.03 23.06"/></g></g></svg>