<svg xmlns="http://www.w3.org/2000/svg" viewBox="0 0 34.19 39.65"><defs><style>.cls-1{fill:none;stroke:#344154;stroke-linecap:round;stroke-linejoin:round;stroke-width:1.06px;}.cls-2{fill:#f2ddde;}</style></defs><g id="Layer_2" data-name="Layer 2"><g id="Icon_Set" data-name="Icon Set"><rect class="cls-1" x="12.07" y="13.72" width="10.06" height="12.12"/><path class="cls-1" d="M15.49,21.44a1.61,1.61,0,1,0,3.21,0c0-.89-.66-1.3-1.6-1.61s-1.61-.72-1.61-1.6a1.61,1.61,0,1,1,3.21,0"/><line class="cls-1" x1="17.1" y1="15.73" x2="17.1" y2="16.63"/><line class="cls-1" x1="17.1" y1="23.05" x2="17.1" y2="23.95"/><line class="cls-1" x1="17.1" y1="13.72" x2="17.1" y2="9.07"/><path class="cls-1" d="M22.05,9.45l2.73-4.23c.57-.89,1.18-1.87.53-3.07A3,3,0,0,0,23.87.88,5.56,5.56,0,0,0,21,.58,7.24,7.24,0,0,0,19.27,1l-.68.25a4.57,4.57,0,0,1-1.49.28,4.58,4.58,0,0,1-1.5-.28L14.92,1A7.24,7.24,0,0,0,13.15.58a5.56,5.56,0,0,0-2.83.3A3,3,0,0,0,8.88,2.15c-.65,1.2,0,2.18.53,3.07l2.73,4.23"/><path class="cls-1" d="M16,9.07a10.49,10.49,0,0,0-7.2,2.76c-4,3.75-4.41,10.08-8.17,23.09v0A3.27,3.27,0,0,0,3.8,39.12H30.39A3.27,3.27,0,0,0,33.53,35v0c-3.76-13-4.18-19.34-8.17-23.09a10.49,10.49,0,0,0-7.2-2.76Z"/><path class="cls-2" d="M31.74,35.43c-.66-2.29-1.21-4.35-1.7-6.25A25.61,25.61,0,0,1,17.1,32.64,25.62,25.62,0,0,1,4.15,29.18c-.49,1.9-1,4-1.7,6.25v0a1.38,1.38,0,0,0,.23,1.24,1.4,1.4,0,0,0,1.13.57H30.39a1.43,1.43,0,0,0,1.37-1.8Z"/></g></g></svg>