<svg xmlns="http://www.w3.org/2000/svg" viewBox="0 0 40.06 39.06"><defs><style>.cls-1{fill:none;stroke:#344154;stroke-linecap:round;stroke-linejoin:round;stroke-width:1.06px;}.cls-2{fill:#f2ddde;}</style></defs><g id="Layer_2" data-name="Layer 2"><g id="Icon_Set" data-name="Icon Set"><path class="cls-1" d="M32.53,36.53h7V28.11A2.58,2.58,0,0,0,37,25.53H3.11A2.57,2.57,0,0,0,.53,28.11v8.42h7"/><line class="cls-1" x1="8.53" y1="31.53" x2="31.53" y2="31.53"/><polyline class="cls-1" points="31.23 34.27 33.47 38.53 19.69 38.53 19.72 38.53 5.94 38.53 8.08 34.27"/><line class="cls-1" x1="15.53" y1="35.53" x2="24.53" y2="35.53"/><path class="cls-2" d="M36.38,27H2.92a1.23,1.23,0,0,0-.89.84V30H37V27.87A.72.72,0,0,0,36.38,27Z"/><path class="cls-1" d="M29.53,25.53V.53H13.88a1.34,1.34,0,0,0-1.35,1.35V3.53H10.88A1.34,1.34,0,0,0,9.53,4.88V25.53"/><path class="cls-1" d="M18,15a1.69,1.69,0,1,0,3.37,0c0-.93-.69-1.36-1.69-1.68S18,12.51,18,11.58a1.69,1.69,0,0,1,3.37,0"/><line class="cls-1" x1="19.53" y1="8.53" x2="19.53" y2="9.53"/><line class="cls-1" x1="19.53" y1="16.53" x2="19.53" y2="17.53"/></g></g></svg>