<svg xmlns="http://www.w3.org/2000/svg" viewBox="0 0 40.06 39.16"><defs><style>.cls-1,.cls-2{fill:none;stroke:#344154;stroke-linecap:round;stroke-width:1.06px;}.cls-1{stroke-linejoin:round;}.cls-2{stroke-miterlimit:10;}.cls-3{fill:#89abe3;}</style></defs><g id="Layer_2" data-name="Layer 2"><g id="Icon_Set" data-name="Icon Set"><path class="cls-1" d="M12,35.34a3.93,3.93,0,1,1,0-7.85"/><path class="cls-2" d="M24.89,21.86A10.16,10.16,0,0,1,29,22.93c2.46,1.35,4.32,2.67,7.41,2.67"/><path class="cls-2" d="M21.32,27.17c-3.21-.11-4.05-.28-4.51.4s.12,1.55.72,2.16"/><path class="cls-2" d="M22.87,24.52c-3.21-.11-4.05-.28-4.51.4s.12,1.55.72,2.15"/><path class="cls-2" d="M24.89,21.86c-3.21-.11-4.05-.28-4.51.4s.12,1.55.72,2.15"/><path class="cls-2" d="M39.53,36.53h-2a1,1,0,0,1-1-1v-11a1,1,0,0,1,1-1h2"/><path class="cls-2" d="M36.53,34.53H32.88c-4.78,0-6.17,1.35-8.21,3a5.91,5.91,0,0,1-3.47,1A1.4,1.4,0,0,1,21,35.86l.47-.07a2.28,2.28,0,0,0,1.89-1.24h0a1.39,1.39,0,0,0-1.25-2H12.35A1.19,1.19,0,0,1,11,31.29h0c0-.75,1.35-1.76,1.35-1.76h8.18"/><polyline class="cls-1" points="22.53 17.53 34.53 17.53 34.53 13.53"/><polyline class="cls-1" points="16.53 4.53 16.53 0.53 38.53 0.53 38.53 13.53 22.53 13.53"/><path class="cls-1" d="M24.71,10.29a4.64,4.64,0,0,1,0-6.54"/><path class="cls-1" d="M31.25,3.75a4.64,4.64,0,0,1,0,6.54"/><path class="cls-1" d="M35.17,7.33a.27.27,0,0,1,.53,0,.27.27,0,1,1-.53,0Z"/><path class="cls-1" d="M26.7,8.29a1.28,1.28,0,0,0,2.56,0c0-.7-.53-1-1.28-1.27S26.7,6.45,26.7,5.74a1.28,1.28,0,0,1,2.56,0"/><line class="cls-1" x1="27.53" y1="3.53" x2="27.53" y2="4.53"/><line class="cls-1" x1="27.53" y1="9.53" x2="27.53" y2="10.53"/><path class="cls-1" d="M2.53,8.53H1.46a.93.93,0,0,0-.93.93V37.6a.93.93,0,0,0,.93.93H15.53a1,1,0,0,0,1-1v-2"/><path class="cls-1" d="M13.53,8.53H14.6a.93.93,0,0,1,.93.93V24.53"/><rect class="cls-3" x="3.03" y="17.03" width="11" height="5"/><line class="cls-1" x1="2.53" y1="12.53" x2="13.53" y2="12.53"/><path class="cls-1" d="M2.53,4.53V2.76A2.23,2.23,0,0,1,4.76.53H11.3a2.23,2.23,0,0,1,2.23,2.23V4.53"/><line class="cls-1" x1="13.53" y1="4.53" x2="13.53" y2="10.53"/><line class="cls-1" x1="2.53" y1="10.53" x2="2.53" y2="4.53"/><line class="cls-1" x1="4.53" y1="5.53" x2="11.53" y2="5.53"/><line class="cls-1" x1="5.53" y1="7.53" x2="10.53" y2="7.53"/><path class="cls-1" d="M16.53,14.53h2.8a1.19,1.19,0,0,1,1.2,1.19v4.81"/></g></g></svg>