<svg xmlns="http://www.w3.org/2000/svg" viewBox="0 0 37.27 39.06"><defs><style>.cls-1{fill:none;stroke:#344154;stroke-linecap:round;stroke-miterlimit:10;stroke-width:1.06px;}.cls-2{fill:#89abe3;}.cls-3{fill:#f2ddde;}</style></defs><g id="Layer_2" data-name="Layer 2"><g id="Icon_Set" data-name="Icon Set"><polyline class="cls-1" points="32.74 8.53 32.74 6.83 32.74 0.53 24.65 0.53 27.06 2.94 20.12 9.88 13.54 3.29 10.46 6.37"/><polyline class="cls-1" points="28.9 8.11 30.88 6.13 31.78 7.03"/><polyline class="cls-1" points="10.82 6.11 0.75 16.19 4.2 19.64 13.9 9.93 20.49 16.51 26.07 10.93"/><polyline class="cls-1" points="28.74 37.53 28.74 9.53 36.74 9.53 36.74 37.53"/><polyline class="cls-1" points="19.74 38.53 19.74 19.53 27.74 19.53"/><polyline class="cls-1" points="19.74 26.53 11.74 26.53 11.74 37.53"/><polyline class="cls-1" points="10.74 32.53 2.74 32.53 2.74 38.53"/><rect class="cls-2" x="31.24" y="13.03" width="3" height="22"/><rect class="cls-2" x="14.24" y="30.03" width="3" height="5"/><rect class="cls-3" x="22.24" y="22.03" width="3" height="13"/></g></g></svg>