<svg xmlns="http://www.w3.org/2000/svg" viewBox="0 0 37.65 37.65"><defs><style>.cls-1{fill:none;stroke:#344154;stroke-linecap:round;stroke-linejoin:round;stroke-width:1.06px;}.cls-2{fill:#89abe3;}</style></defs><g id="Layer_2" data-name="Layer 2"><g id="Icon_Set" data-name="Icon Set"><path class="cls-1" d="M19.23,18.15a3,3,0,0,0,6.08,0c0-1.68-1.25-2.45-3-3-1.59-.52-3-1.35-3-3a3,3,0,1,1,6.08,0"/><line class="cls-1" x1="22.39" y1="7.06" x2="22.39" y2="9.06"/><line class="cls-1" x1="22.39" y1="21.06" x2="22.39" y2="23.06"/><path class="cls-1" d="M13.79,27.81,5.3,36.3a2.79,2.79,0,0,1-3.95,0h0a2.79,2.79,0,0,1,0-3.95l8.49-8.49a15,15,0,1,1,3.95,3.95Z"/><line class="cls-1" x1="9.84" y1="23.86" x2="11.55" y2="25.57"/><path class="cls-2" d="M35.24,15.46a13.08,13.08,0,0,0-7.87-12,17.56,17.56,0,0,1-1.08,24.37,13,13,0,0,0,9-12.4Z"/></g></g></svg>