<svg xmlns="http://www.w3.org/2000/svg" viewBox="0 0 36.14 40.61"><defs><style>.cls-1,.cls-2{fill:none;stroke:#344154;stroke-linecap:round;stroke-width:1.06px;}.cls-1{stroke-linejoin:round;}.cls-2{stroke-miterlimit:10;}.cls-3{fill:#89abe3;}</style></defs><g id="Layer_2" data-name="Layer 2"><g id="Icon_Set" data-name="Icon Set"><path class="cls-1" d="M21.17,17.83v-1a3.5,3.5,0,0,0-3.5-3.5h0a3.5,3.5,0,0,0-3.5,3.5v1"/><path class="cls-1" d="M12.17,17.83H22.24a1.92,1.92,0,0,1,1.92,1.92v9.08a0,0,0,0,1,0,0H14.09a1.92,1.92,0,0,1-1.92-1.92V17.83A0,0,0,0,1,12.17,17.83Z"/><path class="cls-1" d="M20.12,24.25a2.05,2.05,0,0,0-4.1,0"/><path class="cls-2" d="M35.41,5.61A22.85,22.85,0,0,1,18.07.72,22.85,22.85,0,0,1,.73,5.61S-2.61,34,18.07,40.06C38.75,34,35.41,5.61,35.41,5.61Z"/><path class="cls-3" d="M18.07,9c6.24,0,11.71,3.88,14.82,9.72a50.24,50.24,0,0,0,.73-11l-1.08,0h0A25.13,25.13,0,0,1,18.07,3.19,25.17,25.17,0,0,1,3.6,7.72l-1.08,0a49.06,49.06,0,0,0,.73,11C6.36,12.86,11.83,9,18.07,9Z"/></g></g></svg>