<svg xmlns="http://www.w3.org/2000/svg" viewBox="0 0 37.06 41.06"><defs><style>.cls-1,.cls-2{fill:none;stroke:#344154;stroke-linecap:round;stroke-width:1.06px;}.cls-1{stroke-linejoin:round;}.cls-2{stroke-miterlimit:10;}.cls-3{fill:#f2ddde;}</style></defs><g id="Layer_2" data-name="Layer 2"><g id="Icon_Set" data-name="Icon Set"><path class="cls-1" d="M33.53,25.53V23.2a5,5,0,0,0-5-5h0a5,5,0,0,0-5,5v2.33"/><path class="cls-1" d="M19.53,25.53H34.6a1.92,1.92,0,0,1,1.92,1.92V40.53a0,0,0,0,1,0,0H21.45a1.92,1.92,0,0,1-1.92-1.92V25.53A0,0,0,0,1,19.53,25.53Z"/><path class="cls-2" d="M17.55,17.26A43.08,43.08,0,0,1,22,20"/><path class="cls-2" d="M11.31,16.79a45.27,45.27,0,0,0-4.48,2.75,3.59,3.59,0,0,0-1.3,2.88v3.11h11"/><path class="cls-2" d="M18.84,13.32c0,3.11-2,5.64-4.54,5.64s-4.55-2.53-4.55-5.64,2-5.65,4.55-5.65S18.84,10.2,18.84,13.32Z"/><polyline class="cls-1" points="28.53 16.53 28.53 0.53 21.53 0.53"/><polyline class="cls-1" points="20.53 0.53 0.53 0.53 0.53 33.53 19.53 33.53"/><path class="cls-1" d="M17.53,2.53v.09a.91.91,0,0,1-.91.91H11.44a.91.91,0,0,1-.91-.91V2.53"/><path class="cls-3" d="M28.53,31.23a18.8,18.8,0,0,1,6.5,1.1V27H22v5.3A18.74,18.74,0,0,1,28.53,31.23Z"/></g></g></svg>