<svg xmlns="http://www.w3.org/2000/svg" viewBox="0 0 35.87 46.06"><defs><style>.cls-1,.cls-2{fill:none;stroke:#344154;stroke-linecap:round;stroke-width:1.06px;}.cls-1{stroke-linejoin:round;}.cls-2{stroke-miterlimit:10;}.cls-3{fill:#f2ddde;}</style></defs><g id="Layer_2" data-name="Layer 2"><g id="Icon_Set" data-name="Icon Set"><polyline class="cls-1" points="21.75 17.84 23.19 19.12 25.27 16.59"/><path class="cls-2" d="M30.76,11.5a9.82,9.82,0,0,1-7.45-2.1,9.85,9.85,0,0,1-7.46,2.1s-1.43,12.18,7.46,14.81C32.2,23.68,30.76,11.5,30.76,11.5Z"/><path class="cls-3" d="M23.34,24.11,23.11,24c-4.49-1.73-5.23-7-5.27-9.92v-.6l.59,0A10.26,10.26,0,0,0,23,12l.32-.19.32.19a10.26,10.26,0,0,0,4.58,1.42l.6,0v.6c0,3-.79,8.19-5.26,9.92ZM19.13,14.7c.12,2.61.87,6.57,4.18,8,3.28-1.43,4-5.39,4.16-8a11.48,11.48,0,0,1-4.16-1.34A11.53,11.53,0,0,1,19.13,14.7Z"/><path class="cls-2" d="M23.34,34.53h9.73a2.27,2.27,0,0,0,2.27-2.27V30.53"/><line class="cls-2" x1="11.34" y1="22.53" x2="11.34" y2="32.53"/><path class="cls-2" d="M35.34,30.53V3.8a2.27,2.27,0,0,0-2.27-2.27H12.62A2.28,2.28,0,0,0,10.34,3.8V15.53"/><path class="cls-2" d="M18.34.53V2.1a1.43,1.43,0,0,0,1.43,1.43h6.15A1.43,1.43,0,0,0,27.34,2.1V.53"/><rect class="cls-2" x="2.34" y="34.53" width="20" height="11"/><path class="cls-2" d="M9.77,43.15a4.15,4.15,0,0,1,0-5.87"/><path class="cls-2" d="M15.64,37.28a4.15,4.15,0,0,1,0,5.87"/><path class="cls-2" d="M19.17,40.49a.23.23,0,0,1,.23-.23.23.23,0,0,1,.24.23.24.24,0,0,1-.24.24A.23.23,0,0,1,19.17,40.49Z"/><path class="cls-2" d="M5.77,40.49a.24.24,0,0,1,.48,0,.24.24,0,0,1-.48,0Z"/><path class="cls-2" d="M11.56,41.36a1.15,1.15,0,0,0,2.29,0c0-.64-.47-.93-1.14-1.15s-1.15-.51-1.15-1.15a1.15,1.15,0,0,1,2.29,0"/><line class="cls-2" x1="12.34" y1="37.53" x2="12.34" y2="37.53"/><line class="cls-2" x1="12.34" y1="42.53" x2="12.34" y2="43.53"/><path class="cls-2" d="M1.77,33.05A9.35,9.35,0,0,1,10,19"/><polyline class="cls-2" points="10.09 20.82 11.96 18.96 10.16 17.16"/></g></g></svg>