<svg xmlns="http://www.w3.org/2000/svg" viewBox="0 0 41.46 36.59"><defs><style>.cls-1{fill:none;stroke:#344154;stroke-linecap:round;stroke-linejoin:round;stroke-width:1.06px;}.cls-2{fill:#89abe3;}</style></defs><g id="Layer_2" data-name="Layer 2"><g id="Icon_Set" data-name="Icon Set"><path class="cls-1" d="M26.12,21.06V18.78a5,5,0,0,0-5-5h0a5,5,0,0,0-5,5v2.28"/><path class="cls-1" d="M12.12,21.06H27.19A1.92,1.92,0,0,1,29.12,23V36.06a0,0,0,0,1,0,0H14a1.92,1.92,0,0,1-1.92-1.92V21.06A0,0,0,0,1,12.12,21.06Z"/><path class="cls-1" d="M23.52,28.78a2.79,2.79,0,0,0-5.57,0"/><path class="cls-1" d="M29.12,27.06h2.37a9.91,9.91,0,0,0,9.44-9.95A10.07,10.07,0,0,0,30.86,7a10.25,10.25,0,0,0-3.38.58,10.07,10.07,0,0,0-19.69,3A9.51,9.51,0,0,0,8,12.75H7.75A7.22,7.22,0,0,0,.53,20c0,4,3.23,7.22,7.22,8.1h4.37"/><path class="cls-2" d="M39,17.11a8.17,8.17,0,0,0-6.59-8,15,15,0,0,1,1.68,15.5A8.19,8.19,0,0,0,39,17.11Z"/></g></g></svg>