<svg xmlns="http://www.w3.org/2000/svg" viewBox="0 0 43.6 42.06"><defs><style>.cls-1,.cls-2{fill:none;stroke:#344154;stroke-linecap:round;stroke-width:1.06px;}.cls-1{stroke-miterlimit:10;}.cls-2{stroke-linejoin:round;}.cls-3{fill:#89abe3;}</style></defs><g id="Layer_2" data-name="Layer 2"><g id="Icon_Set" data-name="Icon Set"><path class="cls-1" d="M2.18,28.19l3.47,6,3-.76a4.2,4.2,0,0,1,3.1.44l3.82,2.21a4,4,0,0,1,1.85,2.36l.88,3.08h6.94l.87-3A4.19,4.19,0,0,1,28.08,36L30,35l1.87-1.08a4.17,4.17,0,0,1,3.11-.45l3,.76,3.47-6"/><path class="cls-1" d="M41.44,13.86,38,7.86l-3,.76a4.19,4.19,0,0,1-3.08-.44L28.07,6a4.2,4.2,0,0,1-1.93-2.46l-.86-3H18.34l-.87,3A4.2,4.2,0,0,1,15.55,6L13.67,7.09,11.78,8.18a4.16,4.16,0,0,1-3.09.43l-3-.75-3.47,6"/><path class="cls-2" d="M28,21.28a6.32,6.32,0,0,1-6.19,6.44,6.32,6.32,0,0,1-6.19-6.44,6.32,6.32,0,0,1,6.19-6.44A6.32,6.32,0,0,1,28,21.28Z"/><path class="cls-3" d="M21.81,16.67a4.08,4.08,0,0,0-1.71.38,4.71,4.71,0,0,1,0,8.46,4.07,4.07,0,0,0,1.71.37,4.49,4.49,0,0,0,4.36-4.6A4.5,4.5,0,0,0,21.81,16.67Z"/><line class="cls-2" x1="31.57" y1="21.53" x2="39.57" y2="21.53"/><line class="cls-2" x1="30.57" y1="16.53" x2="37.57" y2="16.53"/><line class="cls-2" x1="30.57" y1="25.53" x2="36.57" y2="25.53"/><circle class="cls-2" cx="41.41" cy="21.28" r="1.66"/><circle class="cls-2" cx="38.79" cy="16.95" r="1.66"/><path class="cls-2" d="M40.45,25.58a1.66,1.66,0,1,1-1.66-1.66A1.66,1.66,0,0,1,40.45,25.58Z"/><line class="cls-2" x1="11.57" y1="21.53" x2="3.57" y2="21.53"/><line class="cls-2" x1="12.57" y1="16.53" x2="6.57" y2="16.53"/><line class="cls-2" x1="12.57" y1="25.53" x2="6.57" y2="25.53"/><circle class="cls-2" cx="2.19" cy="21.28" r="1.66"/><path class="cls-2" d="M3.15,17a1.66,1.66,0,1,0,1.66-1.66A1.66,1.66,0,0,0,3.15,17Z"/><path class="cls-2" d="M3.15,25.58a1.66,1.66,0,1,0,1.66-1.66A1.66,1.66,0,0,0,3.15,25.58Z"/><path class="cls-2" d="M12.76,25.58a9.94,9.94,0,0,0,9,6h0a9.94,9.94,0,0,0,9.05-6"/><path class="cls-2" d="M12.78,17a10.56,10.56,0,0,0-.91,4.33"/><path class="cls-2" d="M29.59,14.83a9.81,9.81,0,0,0-7.78-3.9h0A9.81,9.81,0,0,0,14,14.83"/><path class="cls-2" d="M31.75,21.28A10.56,10.56,0,0,0,30.84,17"/></g></g></svg>