<svg xmlns="http://www.w3.org/2000/svg" viewBox="0 0 39.6 40.6"><defs><style>.cls-1,.cls-2,.cls-3{fill:none;stroke:#344154;stroke-width:1.06px;}.cls-1,.cls-2{stroke-linecap:round;}.cls-1{stroke-linejoin:round;}.cls-2,.cls-3{stroke-miterlimit:10;}.cls-4{fill:#f2ddde;}</style></defs><g id="Layer_2" data-name="Layer 2"><g id="Icon_Set" data-name="Icon Set"><path class="cls-1" d="M19.32,14.44l-17.51,18a4.53,4.53,0,0,0,0,6.32,4.24,4.24,0,0,0,3.07,1.3A4.29,4.29,0,0,0,8,38.77L25.4,20.7"/><path class="cls-2" d="M25.35,20.48A5.73,5.73,0,0,1,26.85,15l4.8-4.8"/><path class="cls-2" d="M21.73,27.52l11,11.36a3.7,3.7,0,0,0,5.31,0,3.85,3.85,0,0,0,0-5.28L26.86,22.16"/><path class="cls-2" d="M19.32,14.44h0A5.7,5.7,0,0,0,24.79,13l4.78-4.78"/><path class="cls-2" d="M13,18.56l-2.88-3a7.29,7.29,0,0,1-7.27-2,7.81,7.81,0,0,1-2-7.07L2,7.73,3.59,9.41a4,4,0,0,0,3.9,1.06h0a4,4,0,0,0,2.78-2.82l.06-.22a4,4,0,0,0-1-3.76L7.62,1.9,6.46.71a7.32,7.32,0,0,1,6.88,2.06,7.81,7.81,0,0,1,1.9,7.48l2.67,2.67"/><path class="cls-3" d="M38.08,4.64,36.62,3.18,35.16,1.72c-2.29,1.22-3.34,1.51-4.53,2.63a3.78,3.78,0,0,0-1.25,2.74,3.16,3.16,0,0,0,.92,2.23l.1.09.08.09a3.16,3.16,0,0,0,2.23.92,3.78,3.78,0,0,0,2.74-1.25C36.57,8,36.86,6.93,38.08,4.64Z"/><path class="cls-4" d="M3.3,37.31a2.16,2.16,0,0,0,3.15,0l6.9-7.14L10.1,26.92l-6.8,7A2.46,2.46,0,0,0,3.3,37.31Z"/></g></g></svg>