<svg xmlns="http://www.w3.org/2000/svg" viewBox="0 0 39.98 41.06"><defs><style>.cls-1,.cls-2{fill:none;stroke:#344154;stroke-width:1.06px;}.cls-1{stroke-linecap:round;stroke-linejoin:round;}.cls-2{stroke-miterlimit:10;}.cls-3{fill:#89abe3;}</style></defs><g id="Layer_2" data-name="Layer 2"><g id="Icon_Set" data-name="Icon Set"><rect class="cls-1" x="24.45" y="0.53" width="15" height="21"/><polyline class="cls-1" points="26.45 2.53 26.45 6.53 36.45 6.53 36.45 2.53"/><line class="cls-2" x1="27.95" y1="11.53" x2="28.95" y2="11.53"/><line class="cls-2" x1="30.95" y1="11.53" x2="31.95" y2="11.53"/><line class="cls-2" x1="33.95" y1="11.53" x2="34.95" y2="11.53"/><line class="cls-2" x1="27.95" y1="14.53" x2="28.95" y2="14.53"/><line class="cls-2" x1="30.95" y1="14.53" x2="31.95" y2="14.53"/><line class="cls-2" x1="33.95" y1="14.53" x2="34.95" y2="14.53"/><line class="cls-2" x1="27.95" y1="16.53" x2="28.95" y2="16.53"/><line class="cls-2" x1="30.95" y1="16.53" x2="31.95" y2="16.53"/><line class="cls-2" x1="33.95" y1="16.53" x2="34.95" y2="16.53"/><path class="cls-1" d="M14.93,23.29a2.08,2.08,0,0,0,4.16,0c0-1.15-.85-1.68-2.08-2.08s-2.08-.93-2.08-2.08a2.08,2.08,0,0,1,4.16,0"/><line class="cls-1" x1="17.45" y1="15.53" x2="17.45" y2="17.53"/><line class="cls-1" x1="17.45" y1="25.53" x2="17.45" y2="26.53"/><line class="cls-1" x1="11.45" y1="30.53" x2="24.45" y2="30.53"/><line class="cls-1" x1="27.45" y1="21.53" x2="27.45" y2="33.53"/><line class="cls-1" x1="5.45" y1="9.53" x2="24.45" y2="9.53"/><path class="cls-1" d="M10.93,37.4a3.93,3.93,0,0,0,.12-1,4.06,4.06,0,0,0-1.19-2.89H31.48a4.15,4.15,0,0,1,1,4.16,4.45,4.45,0,0,1-4,2.84H10.35a4.9,4.9,0,0,1-4.9-4.9V11.53"/><path class="cls-1" d="M5.45,16.53H.53S.81,10.1,5.07,10.1"/><path class="cls-3" d="M22.72,39h4.81a2.17,2.17,0,0,0,2.18-1.67A2.08,2.08,0,0,0,29.54,36H24.6a14.16,14.16,0,0,1-1.2,2.11C23.19,38.44,23,38.74,22.72,39Z"/></g></g></svg>