<svg xmlns="http://www.w3.org/2000/svg" viewBox="0 0 39.79 39.79"><defs><style>.cls-1,.cls-2{fill:none;stroke:#344154;stroke-linecap:round;stroke-width:1.06px;}.cls-1{stroke-miterlimit:10;}.cls-2{stroke-linejoin:round;}.cls-3{fill:#f2ddde;}</style></defs><g id="Layer_2" data-name="Layer 2"><g id="Icon_Set" data-name="Icon Set"><path class="cls-1" d="M35,32.16l-5.73-5.74a2.07,2.07,0,0,0-2.9,0l-2.88,2.89a2.18,2.18,0,0,1-2.71.31A34.12,34.12,0,0,1,10.16,19a2.18,2.18,0,0,1,.32-2.7l2.89-2.89a2.07,2.07,0,0,0,0-2.9L7.63,4.81a2,2,0,0,0-2.89,0l-3.4,3.4A2.74,2.74,0,0,0,.7,11.1a47.06,47.06,0,0,0,28,28,2.74,2.74,0,0,0,2.89-.64l3.4-3.4A2,2,0,0,0,35,32.16Z"/><path class="cls-1" d="M11,5.39A16.58,16.58,0,0,1,34.41,28.84"/><path class="cls-2" d="M17.32,12.43a1.38,1.38,0,0,1,1.23-1.55,1.37,1.37,0,0,1,1.39,1.4c-.11,1.82-3,2.06-2.67,4h3.05"/><polyline class="cls-2" points="24.32 16.24 24.32 10.24 23.12 10.24 21.32 13.89 21.32 14.24 22.32 14.24"/><line class="cls-2" x1="29.35" y1="11.26" x2="25.34" y2="21.41"/><path class="cls-2" d="M30.32,16.24H34a8.67,8.67,0,0,0-2.49,5.3"/><path class="cls-3" d="M33.69,33.45l-3.57-3.57A12.27,12.27,0,0,1,26.05,36q1.61.73,3.27,1.35a1.06,1.06,0,0,0,.31,0,1,1,0,0,0,.66-.27l3.4-3.4a.2.2,0,0,0,.06-.15A.25.25,0,0,0,33.69,33.45Z"/></g></g></svg>