<svg xmlns="http://www.w3.org/2000/svg" viewBox="0 0 33.34 45.55"><defs><style>.cls-1{fill:none;stroke:#344154;stroke-linecap:round;stroke-linejoin:round;stroke-width:1.06px;}.cls-2{fill:#f2ddde;}</style></defs><g id="Layer_2" data-name="Layer 2"><g id="Icon_Set" data-name="Icon Set"><path class="cls-1" d="M10.93,22.83A6.55,6.55,0,0,1,3.07,19a4.15,4.15,0,0,0,2.11-1.81c2.24-3.55.79-8.52,3-12.08l0,0A9.45,9.45,0,0,1,16.26.53h1a9.49,9.49,0,0,1,8.08,4.52l0,0c2.2,3.56.76,8.53,3,12.08A4.21,4.21,0,0,0,30.49,19a6.56,6.56,0,0,1-7.86,3.85"/><path class="cls-1" d="M.53,39.77l1.83-8.63a2.72,2.72,0,0,1,.13-.49,4.16,4.16,0,0,1,2.81-2.6c1.32-.37,2.65-.72,4-1.1,3.62-1,3.93-2.61,4.58-4.18"/><path class="cls-1" d="M19.69,22.77c.66,1.57,1,3.16,4.59,4.18,1.31.38,2.64.73,4,1.1a4.16,4.16,0,0,1,2.59,2.1,4,4,0,0,1,.38,1.14l1.6,8.48"/><path class="cls-1" d="M24,13a24.34,24.34,0,0,1-2.82,8.16h0a5.36,5.36,0,0,1-4.44,2.54h0a5.36,5.36,0,0,1-4.44-2.54h0a17.86,17.86,0,0,1-2.68-7.34c-.86-6.52,6.09-6.7,10.3-3.54A37.2,37.2,0,0,0,24,13"/><polyline class="cls-1" points="19.73 27.01 16.77 28.56 16.77 28.56 13.8 27.01"/><polyline class="cls-1" points="15.15 29.77 13.19 40.94 16.77 45.02 20.34 40.94 18.38 29.77"/><path class="cls-2" d="M15.7,37.31l-.55,3.08,1.61,1.84,1.62-1.84-.55-3.08a7.13,7.13,0,0,1-2.13,0Z"/></g></g></svg>