<svg xmlns="http://www.w3.org/2000/svg" viewBox="0 0 35.3 45.55"><defs><style>.cls-1{fill:none;stroke:#344154;stroke-linecap:round;stroke-linejoin:round;stroke-width:1.06px;}.cls-2{fill:#f2ddde;}</style></defs><g id="Layer_2" data-name="Layer 2"><g id="Icon_Set" data-name="Icon Set"><path class="cls-1" d="M15.72,15.75a1.49,1.49,0,1,0,3,0c0-.82-.61-1.2-1.49-1.49s-1.48-.67-1.48-1.49a1.49,1.49,0,1,1,3,0"/><line class="cls-1" x1="17.52" y1="10.02" x2="17.52" y2="11.02"/><line class="cls-1" x1="17.52" y1="17.02" x2="17.52" y2="18.02"/><line class="cls-1" x1="20.52" y1="7.02" x2="12.52" y2="7.02"/><line class="cls-1" x1="10.52" y1="21.02" x2="10.52" y2="7.02"/><line class="cls-1" x1="28.52" y1="21.02" x2="6.52" y2="21.02"/><path class="cls-1" d="M10.52,1H22.31a3.21,3.21,0,0,1,3.21,3.2V21"/><path class="cls-1" d="M10.24.53A2.64,2.64,0,0,0,8.37,5H22.23a2.64,2.64,0,0,1-.76-1.86,2.57,2.57,0,0,1,.08-.62"/><path class="cls-1" d="M24.52,7H31.1a2.42,2.42,0,0,1,2.42,2.41V28.6A2.42,2.42,0,0,1,31.1,31H3.93A2.41,2.41,0,0,1,1.52,28.6V9.43A2.41,2.41,0,0,1,3.93,7h6.59"/><polyline class="cls-1" points="9.38 31.29 7.91 35.02 17.65 35.02 27.39 35.02 25.92 31.29"/><path class="cls-1" d="M31.69,38l2.94,5.29a1.15,1.15,0,0,1-1,1.71H1.68a1.15,1.15,0,0,1-1-1.71L3.61,38Z"/><polygon class="cls-2" points="3.6 42.52 5.26 39.52 30.04 39.52 31.7 42.52 3.6 42.52"/></g></g></svg>