<svg xmlns="http://www.w3.org/2000/svg" viewBox="0 0 40.06 30.97"><defs><style>.cls-1{fill:none;stroke:#344154;stroke-linecap:round;stroke-miterlimit:10;stroke-width:1.06px;}.cls-2{fill:#f2ddde;}</style></defs><g id="Layer_2" data-name="Layer 2"><g id="Icon_Set" data-name="Icon Set"><path class="cls-1" d="M17.91.53H38.59a.94.94,0,0,1,.94.94V18.66L36.64,15.8a.94.94,0,0,0-.66-.27H18.34a1.81,1.81,0,0,1-1.81-1.82V1.91A1.38,1.38,0,0,1,17.91.53Z"/><path class="cls-1" d="M15.53,11.53H1.44a.91.91,0,0,0-.91.91V29.66l2.76-2.85a.9.9,0,0,1,.65-.28H20.77a1.76,1.76,0,0,0,1.76-1.76V17.53"/><path class="cls-1" d="M11.53,21.53V20.42a1.76,1.76,0,0,1,1-1.58h0a1.9,1.9,0,0,0,1.06-1.65c0-.51-.13-1-1.4-1.86a1,1,0,0,0-.59-.2,2,2,0,0,0-2.07,2"/><path class="cls-1" d="M11.08,23A0,0,0,1,1,11,23a0,0,0,0,1,.06,0A0,0,0,0,1,11.08,23Z"/><line class="cls-1" x1="23.53" y1="5.53" x2="33.53" y2="5.53"/><line class="cls-1" x1="23.53" y1="9.53" x2="33.53" y2="9.53"/><polygon class="cls-2" points="2.03 18.56 7.56 13.03 2.03 13.03 2.03 18.56"/></g></g></svg>