<svg xmlns="http://www.w3.org/2000/svg" viewBox="0 0 31.45 44.78"><defs><style>.cls-1{fill:none;stroke:#344154;stroke-linecap:round;stroke-miterlimit:10;stroke-width:1.06px;}.cls-2{fill:#f2ddde;}</style></defs><g id="Layer_2" data-name="Layer 2"><g id="Icon_Set" data-name="Icon Set"><rect class="cls-1" x="4.98" y="32.25" width="22" height="12"/><path class="cls-1" d="M12.51,41.05a4.54,4.54,0,0,1,0-6.43"/><path class="cls-1" d="M18.94,34.62a4.54,4.54,0,0,1,0,6.43"/><path class="cls-1" d="M22.81,38.14a.26.26,0,1,1,.26.26A.25.25,0,0,1,22.81,38.14Z"/><path class="cls-1" d="M8.13,38.14a.26.26,0,1,1,.26.26A.25.25,0,0,1,8.13,38.14Z"/><path class="cls-1" d="M14.47,39.09a1.26,1.26,0,0,0,2.51,0c0-.7-.51-1-1.25-1.26s-1.26-.56-1.26-1.25a1.26,1.26,0,1,1,2.51,0"/><line class="cls-1" x1="15.98" y1="34.25" x2="15.98" y2="35.25"/><line class="cls-1" x1="15.98" y1="40.25" x2="15.98" y2="41.25"/><path class="cls-1" d="M20,20.25h3.84A7.1,7.1,0,0,0,30.92,13a7.57,7.57,0,0,0-7.57-7.57,7.47,7.47,0,0,0-2.55.44A7.57,7.57,0,0,0,6,8.1a7.18,7.18,0,0,0,.18,1.62H6A5.44,5.44,0,0,0,.53,15.14c0,3,2.43,5.43,5.43,6.11h5"/><polyline class="cls-1" points="13.98 29.25 13.98 25.25 10.83 25.25 15.98 18.97 21.12 25.25 17.98 25.25 17.98 29.25"/><path class="cls-2" d="M29,13a5.64,5.64,0,0,0-5.63-5.64,6.11,6.11,0,0,0-.86.07A17.7,17.7,0,0,1,24.77,10a11,11,0,0,1,2.07,5.63,8.06,8.06,0,0,1-.12,1.84A5.61,5.61,0,0,0,29,13Z"/></g></g></svg>