<svg xmlns="http://www.w3.org/2000/svg" viewBox="0 0 39.15 45.57"><defs><style>.cls-1{fill:none;stroke:#344154;stroke-linecap:round;stroke-miterlimit:10;stroke-width:1.06px;}.cls-2{fill:#89abe3;}</style></defs><g id="Layer_2" data-name="Layer 2"><g id="Icon_Set" data-name="Icon Set"><polyline class="cls-1" points="22.57 26.6 19.57 28.17 19.57 28.17 16.58 26.6"/><polyline class="cls-1" points="17.95 29.38 15.97 40.65 19.57 44.77 23.18 40.65 21.2 29.38"/><path class="cls-2" d="M18.5,37,18,40.1,19.58,42,21.2,40.1,20.65,37a6.47,6.47,0,0,1-2.15,0Z"/><path class="cls-1" d="M19.46.53C28.51.53,28,9,28,9v7c-.4,3-2,4.84-4.4,7a6.17,6.17,0,0,1-4.1,1.69h0a6.19,6.19,0,0,1-4.1-1.69c-2.36-2.12-4-4-4.4-7V9S11,.53,19.46.53Z"/><path class="cls-1" d="M24.06,22.45c.22,2.94,2.33,5.23,4.81,5.23l2.78.18a6.74,6.74,0,0,1,6,5.57l.95,5.47"/><path class="cls-1" d="M15.09,22.45c-.22,2.94-2.33,5.23-4.81,5.23l-2.78.18a6.74,6.74,0,0,0-6,5.57L.53,38.9"/><path class="cls-1" d="M11.27,8.85A7.72,7.72,0,0,1,17.82,7a35.08,35.08,0,0,1,4.93,1.62,6.11,6.11,0,0,0,5-.19"/></g></g></svg>